<svg preserveAspectRatio="none" width="100%" height="100%" overflow="visible" style="display: block;" viewBox="0 0 50 50" fill="none" xmlns="http://www.w3.org/2000/svg">
<g id="Container" opacity="0.2">
<path id="Icon" d="M0 12.5V0H12.5V5H5V12.5H0V12.5M0 50V37.5H5V45H12.5V50H0V50M37.5 50V45H45V37.5H50V50H37.5V50M45 12.5V5H37.5V0H50V12.5H45V12.5M38.75 38.75H42.5V42.5H38.75V38.75V38.75M38.75 31.25H42.5V35H38.75V31.25V31.25M35 35H38.75V38.75H35V35V35M31.25 38.75H35V42.5H31.25V38.75V38.75M27.5 35H31.25V38.75H27.5V35V35M35 27.5H38.75V31.25H35V27.5V27.5M31.25 31.25H35V35H31.25V31.25V31.25M27.5 27.5H31.25V31.25H27.5V27.5V27.5M42.5 7.5V22.5H27.5V7.5H42.5V7.5M22.5 27.5V42.5H7.5V27.5H22.5V27.5M22.5 7.5V22.5H7.5V7.5H22.5V7.5M18.75 38.75V31.25H11.25V38.75H18.75V38.75M18.75 18.75V11.25H11.25V18.75H18.75V18.75M38.75 18.75V11.25H31.25V18.75H38.75V18.75" fill="var(--fill-0, white)" fill-opacity="0.4"/>
</g>
</svg>
