<svg preserveAspectRatio="none" width="100%" height="100%" overflow="visible" style="display: block;" viewBox="0 0 29.9688 35.9688" fill="none" xmlns="http://www.w3.org/2000/svg">
<g id="Overlay">
<rect width="29.9688" height="35.9688" rx="8" fill="var(--fill-0, #017A40)" fill-opacity="0.1"/>
<path id="Icon" d="M10.0391 10.0391C11.3984 8.67969 13.0469 8 14.9844 8C16.9219 8 18.5703 8.67969 19.9297 10.0391C21.2891 11.3984 21.9688 13.0469 21.9688 14.9844C21.9688 17.3281 20.9688 19.2344 18.9688 20.7031V23C18.9688 23.2812 18.875 23.5156 18.6875 23.7031C18.5 23.8906 18.2656 23.9844 17.9844 23.9844H11.9844C11.7031 23.9844 11.4688 23.8906 11.2812 23.7031C11.0938 23.5156 11 23.2812 11 23V20.7031C9 19.3281 8 17.4219 8 14.9844C8 13.0469 8.67969 11.3984 10.0391 10.0391V10.0391M11.9844 26.9844V26H17.9844V26.9844C17.9844 27.2656 17.8906 27.5 17.7031 27.6875C17.5156 27.875 17.2812 27.9688 17 27.9688H12.9688C12.6875 27.9688 12.4531 27.875 12.2656 27.6875C12.0781 27.5 11.9844 27.2656 11.9844 26.9844V26.9844" fill="var(--fill-0, #017A40)"/>
</g>
</svg>
