<svg preserveAspectRatio="none" width="100%" height="100%" overflow="visible" style="display: block;" viewBox="0 0 139 180" fill="none" xmlns="http://www.w3.org/2000/svg">
<g id="Botol 1">
<path id="Vector" d="M69.5 6C59.4611 6 54.4417 9 54.4417 15V30C44.4027 36 39.3833 48 39.3833 60V162C39.3833 171 49.4223 174 69.5 174C89.5777 174 99.6167 171 99.6167 162V60C99.6167 48 94.5973 36 84.5583 30V15C84.5583 9 79.5389 6 69.5 6Z" fill="var(--fill-0, #34D399)" fill-opacity="0.2"/>
<path id="Vector_2" d="M69.5 6C59.4611 6 54.4417 9 54.4417 15V30C44.4027 36 39.3833 48 39.3833 60V162C39.3833 171 49.4223 174 69.5 174C89.5777 174 99.6167 171 99.6167 162V60C99.6167 48 94.5973 36 84.5583 30V15C84.5583 9 79.5389 6 69.5 6Z" stroke="var(--stroke-0, #34D399)" stroke-width="1.73333"/>
<path id="Vector_3" d="M54.4417 24H84.5583" stroke="var(--stroke-0, #34D399)" stroke-width="1.73333"/>
<path id="Vector_4" d="M49.4221 45H89.5777" stroke="var(--stroke-0, #34D399)" stroke-width="0.866667" stroke-dasharray="3.47 3.47"/>
</g>
</svg>
