<svg width="556" height="124" viewBox="0 0 556 124" fill="none" xmlns="http://www.w3.org/2000/svg">
<path d="M52.253 0.00183079C52.58 -0.00237612 53.0275 -0.0189463 53.2645 0.234616C55.0556 2.15207 56.3561 5.07906 57.5654 7.41249C65.584 22.8811 79.4334 33.784 88.9605 48.1474C94.804 56.9035 97.5191 68.9979 90.4917 77.9548C85.893 83.8202 78.2863 87.2138 71.1017 88.4924C68.9963 88.8672 68.2282 88.1138 68.2028 86.0958C68.1584 82.6435 68.1775 79.1722 68.1813 75.7238V54.4476C64.878 49.2641 51.2022 35.6085 61.0664 30.4195C58.2245 29.3357 57.0508 29.1348 54.0999 28.8108C51.1464 28.6457 47.1289 29.091 44.4691 30.4633C53.9034 35.5251 40.8277 49.3782 37.3845 54.3855L37.3012 54.5084C36.9869 64.7577 37.4661 75.1948 37.2652 85.4622C37.3123 87.2559 36.9948 88.8557 34.748 88.4516C12.8701 84.5112 5.16088 67.2565 17.2173 48.2789C26.3362 33.9252 39.2142 23.5746 47.2253 8.56302C48.428 6.30939 50.5393 1.40974 52.253 0.00183079Z" fill="#00AA5B"/>
<path d="M8.57171 59.0564L8.63813 59.0988C8.59719 59.4531 7.66806 60.9745 7.4489 61.4421C3.58092 69.6964 5.96496 78.7489 12.7633 84.6297C23.9617 94.3158 41.4467 98.5342 55.9098 97.9529C58.8036 97.8394 61.6899 97.573 64.5571 97.1586C68.4371 96.5888 70.469 95.0208 72.345 99.1984C73.9434 102.758 71.8329 105.214 69.7186 107.77C67.2063 110.811 64.3809 113.42 61.5415 116.071C60.2309 117.372 53.4786 123.465 51.9803 124C51.0829 123.686 46.0146 119.794 44.7126 118.894C42.6868 117.509 40.6057 116.206 38.4744 114.99C29.3972 109.798 19.3737 107.297 11.1512 100.659C4.87346 95.5919 1.05884 89.4358 0.151772 81.3432C-0.524221 75.1692 1.07304 68.9596 4.64149 63.8908C6.05014 61.8887 7.16002 60.8329 8.57171 59.0564Z" fill="#00AA5B"/>
<path d="M51.1843 52.579C55.9516 52.3072 61.3121 54.2177 62.2134 59.7461C62.5328 61.7126 62.3553 64.4788 62.3528 66.5157L62.3439 76.2516C62.3401 80.2621 62.3579 84.2702 62.3427 88.2846C62.3325 90.9541 60.3069 90.7896 58.2611 90.8993C57.0759 90.963 55.8793 91.0012 54.6916 91.0561C51.543 91.0943 47.1971 91.2626 44.2317 90.3371C43.1232 89.9916 43.4098 86.1289 43.4114 85.1026L43.4094 77.8107L43.4065 66.1499C43.4067 64.371 43.4094 62.5759 43.4216 60.7977C43.4557 55.8361 46.6499 53.4762 51.1843 52.579Z" fill="#00AA5B"/>
<path d="M99.3684 61.4255C103.939 66.5629 106.311 73.3068 105.967 80.1921C105.103 96.3135 89.1252 106.196 74.8536 109.25C74.2579 109.378 73.6444 109.454 73.0537 109.591C74.0133 108.765 74.9069 108.219 75.8804 107.469C78.3787 105.548 80.758 103.359 82.5161 100.721C79.7313 98.9115 77.0415 96.956 74.4594 94.864L74.5925 94.7977C75.6307 94.2865 76.9971 93.7931 78.1126 93.3979C90.7946 88.908 105.999 77.3135 98.8221 61.9504L99.3684 61.4255Z" fill="#00AA5B"/>
<path d="M159.6 95.26C153.93 95.26 148.89 93.965 144.48 91.375C140.14 88.715 136.745 85.145 134.295 80.665C131.845 76.115 130.62 71.04 130.62 65.44C130.62 59.7 131.845 54.625 134.295 50.215C136.815 45.805 140.175 42.34 144.375 39.82C148.575 37.23 153.335 35.935 158.655 35.935C162.925 35.935 166.74 36.67 170.1 38.14C173.46 39.61 176.295 41.64 178.605 44.23C180.915 46.75 182.665 49.655 183.855 52.945C185.115 56.235 185.745 59.735 185.745 63.445C185.745 64.355 185.71 65.3 185.64 66.28C185.57 67.26 185.43 68.17 185.22 69.01H139.965V59.56H178.5L172.83 63.865C173.53 60.435 173.285 57.39 172.095 54.73C170.975 52 169.225 49.865 166.845 48.325C164.535 46.715 161.805 45.91 158.655 45.91C155.505 45.91 152.705 46.715 150.255 48.325C147.805 49.865 145.915 52.105 144.585 55.045C143.255 57.915 142.73 61.415 143.01 65.545C142.66 69.395 143.185 72.755 144.585 75.625C146.055 78.495 148.085 80.735 150.675 82.345C153.335 83.955 156.345 84.76 159.705 84.76C163.135 84.76 166.04 83.99 168.42 82.45C170.87 80.91 172.795 78.915 174.195 76.465L183.855 81.19C182.735 83.85 180.985 86.265 178.605 88.435C176.295 90.535 173.495 92.215 170.205 93.475C166.985 94.665 163.45 95.26 159.6 95.26ZM221.31 95.26C215.64 95.26 210.6 93.965 206.19 91.375C201.85 88.715 198.385 85.145 195.795 80.665C193.275 76.185 192.015 71.11 192.015 65.44C192.015 59.84 193.275 54.8 195.795 50.32C198.315 45.84 201.78 42.34 206.19 39.82C210.6 37.23 215.64 35.935 221.31 35.935C225.16 35.935 228.765 36.635 232.125 38.035C235.485 39.365 238.39 41.22 240.84 43.6C243.36 45.98 245.215 48.745 246.405 51.895L236.01 56.725C234.82 53.785 232.895 51.44 230.235 49.69C227.645 47.87 224.67 46.96 221.31 46.96C218.09 46.96 215.185 47.765 212.595 49.375C210.075 50.915 208.08 53.12 206.61 55.99C205.14 58.79 204.405 61.975 204.405 65.545C204.405 69.115 205.14 72.335 206.61 75.205C208.08 78.005 210.075 80.21 212.595 81.82C215.185 83.43 218.09 84.235 221.31 84.235C224.74 84.235 227.715 83.36 230.235 81.61C232.825 79.79 234.75 77.375 236.01 74.365L246.405 79.3C245.285 82.31 243.465 85.04 240.945 87.49C238.495 89.87 235.59 91.76 232.23 93.16C228.87 94.56 225.23 95.26 221.31 95.26ZM282.406 95.26C276.946 95.26 271.941 93.965 267.391 91.375C262.911 88.785 259.341 85.25 256.681 80.77C254.021 76.29 252.691 71.215 252.691 65.545C252.691 59.805 254.021 54.73 256.681 50.32C259.341 45.84 262.911 42.34 267.391 39.82C271.871 37.23 276.876 35.935 282.406 35.935C288.006 35.935 293.011 37.23 297.421 39.82C301.901 42.34 305.436 45.84 308.026 50.32C310.686 54.73 312.016 59.805 312.016 65.545C312.016 71.285 310.686 76.395 308.026 80.875C305.366 85.355 301.796 88.89 297.316 91.48C292.836 94 287.866 95.26 282.406 95.26ZM282.406 84.235C285.766 84.235 288.741 83.43 291.331 81.82C293.921 80.21 295.951 78.005 297.421 75.205C298.961 72.335 299.731 69.115 299.731 65.545C299.731 61.975 298.961 58.79 297.421 55.99C295.951 53.19 293.921 50.985 291.331 49.375C288.741 47.765 285.766 46.96 282.406 46.96C279.116 46.96 276.141 47.765 273.481 49.375C270.891 50.985 268.826 53.19 267.286 55.99C265.816 58.79 265.081 61.975 265.081 65.545C265.081 69.115 265.816 72.335 267.286 75.205C268.826 78.005 270.891 80.21 273.481 81.82C276.141 83.43 279.116 84.235 282.406 84.235ZM346.85 95.26C341.39 95.26 336.49 93.965 332.15 91.375C327.88 88.715 324.485 85.145 321.965 80.665C319.515 76.185 318.29 71.145 318.29 65.545C318.29 59.945 319.55 54.905 322.07 50.425C324.59 45.945 327.985 42.41 332.255 39.82C336.525 37.23 341.355 35.935 346.745 35.935C351.295 35.935 355.32 36.845 358.82 38.665C362.32 40.485 365.085 43.005 367.115 46.225L365.33 48.955V14.515H377.09V94H365.855V82.45L367.22 84.655C365.26 88.085 362.46 90.71 358.82 92.53C355.18 94.35 351.19 95.26 346.85 95.26ZM348.005 84.235C351.295 84.235 354.235 83.43 356.825 81.82C359.485 80.21 361.55 78.005 363.02 75.205C364.56 72.335 365.33 69.115 365.33 65.545C365.33 61.975 364.56 58.79 363.02 55.99C361.55 53.19 359.485 50.985 356.825 49.375C354.235 47.765 351.295 46.96 348.005 46.96C344.715 46.96 341.74 47.765 339.08 49.375C336.42 50.985 334.355 53.19 332.885 55.99C331.415 58.79 330.68 61.975 330.68 65.545C330.68 69.115 331.415 72.335 332.885 75.205C334.355 78.005 336.385 80.21 338.975 81.82C341.635 83.43 344.645 84.235 348.005 84.235ZM387.942 94V37.195H399.282V48.64L398.232 46.96C399.492 43.25 401.522 40.59 404.322 38.98C407.122 37.3 410.482 36.46 414.402 36.46H417.867V47.275H412.932C409.012 47.275 405.827 48.5 403.377 50.95C400.997 53.33 399.807 56.76 399.807 61.24V94H387.942ZM450.389 95.26C444.929 95.26 439.924 93.965 435.374 91.375C430.894 88.785 427.324 85.25 424.664 80.77C422.004 76.29 420.674 71.215 420.674 65.545C420.674 59.805 422.004 54.73 424.664 50.32C427.324 45.84 430.894 42.34 435.374 39.82C439.854 37.23 444.859 35.935 450.389 35.935C455.989 35.935 460.994 37.23 465.404 39.82C469.884 42.34 473.419 45.84 476.009 50.32C478.669 54.73 479.999 59.805 479.999 65.545C479.999 71.285 478.669 76.395 476.009 80.875C473.349 85.355 469.779 88.89 465.299 91.48C460.819 94 455.849 95.26 450.389 95.26ZM450.389 84.235C453.749 84.235 456.724 83.43 459.314 81.82C461.904 80.21 463.934 78.005 465.404 75.205C466.944 72.335 467.714 69.115 467.714 65.545C467.714 61.975 466.944 58.79 465.404 55.99C463.934 53.19 461.904 50.985 459.314 49.375C456.724 47.765 453.749 46.96 450.389 46.96C447.099 46.96 444.124 47.765 441.464 49.375C438.874 50.985 436.809 53.19 435.269 55.99C433.799 58.79 433.064 61.975 433.064 65.545C433.064 69.115 433.799 72.335 435.269 75.205C436.809 78.005 438.874 80.21 441.464 81.82C444.124 83.43 447.099 84.235 450.389 84.235ZM488.582 115V37.195H499.922V48.955L498.557 46.225C500.657 43.005 503.457 40.485 506.957 38.665C510.457 36.845 514.447 35.935 518.927 35.935C524.317 35.935 529.147 37.23 533.417 39.82C537.757 42.41 541.152 45.945 543.602 50.425C546.122 54.905 547.382 59.945 547.382 65.545C547.382 71.145 546.122 76.185 543.602 80.665C541.152 85.145 537.792 88.715 533.522 91.375C529.252 93.965 524.387 95.26 518.927 95.26C514.517 95.26 510.492 94.35 506.852 92.53C503.282 90.71 500.517 88.085 498.557 84.655L500.447 82.45V115H488.582ZM517.772 84.235C521.132 84.235 524.107 83.43 526.697 81.82C529.287 80.21 531.317 78.005 532.787 75.205C534.327 72.335 535.097 69.115 535.097 65.545C535.097 61.975 534.327 58.79 532.787 55.99C531.317 53.19 529.287 50.985 526.697 49.375C524.107 47.765 521.132 46.96 517.772 46.96C514.482 46.96 511.507 47.765 508.847 49.375C506.257 50.985 504.192 53.19 502.652 55.99C501.182 58.79 500.447 61.975 500.447 65.545C500.447 69.115 501.182 72.335 502.652 75.205C504.192 78.005 506.257 80.21 508.847 81.82C511.507 83.43 514.482 84.235 517.772 84.235Z" fill="white"/>
</svg>
