<svg width="552" height="124" viewBox="0 0 552 124" fill="none" xmlns="http://www.w3.org/2000/svg">
<g clip-path="url(#clip0_278_4441)">
<path d="M51.8546 -0.0748294C52.1816 -0.0790363 52.6291 -0.0956065 52.8661 0.157956C54.6572 2.07541 55.9577 5.0024 57.1669 7.33583C65.1856 22.8044 79.035 33.7073 88.562 48.0707C94.4055 56.8268 97.1206 68.9212 90.0933 77.8781C85.4945 83.7435 77.8879 87.1371 70.7033 88.4158C68.5979 88.7906 67.8297 88.0371 67.8044 86.0191C67.76 82.5669 67.779 79.0955 67.7828 75.6472V54.3709C64.4795 49.1875 50.8038 35.5318 60.668 30.3428C57.8261 29.2591 56.6523 29.0582 53.7014 28.7341C50.748 28.569 46.7304 29.0143 44.0707 30.3867C53.505 35.4485 40.4292 49.3016 36.986 54.3088L36.9027 54.4317C36.5885 64.681 37.0677 75.1181 36.8667 85.3855C36.9139 87.1792 36.5964 88.7791 34.3496 88.375C12.4717 84.4345 4.76245 67.1798 16.8189 48.2023C25.9378 33.8486 38.8158 23.4979 46.8269 8.48636C48.0296 6.23273 50.1408 1.33308 51.8546 -0.0748294Z" fill="#00AA5B"/>
<path d="M8.17352 58.9797L8.23994 59.0222C8.199 59.3765 7.26987 60.8978 7.05071 61.3654C3.18273 69.6198 5.56677 78.6723 12.3651 84.553C23.5636 94.2391 41.0485 98.4575 55.5116 97.8762C58.4054 97.7627 61.2917 97.4963 64.1589 97.082C68.0389 96.5121 70.0708 94.9441 71.9468 99.1217C73.5452 102.681 71.4347 105.138 69.3204 107.694C66.8081 110.734 63.9827 113.344 61.1433 115.994C59.8327 117.296 53.0804 123.388 51.5821 123.923C50.6847 123.61 45.6164 119.718 44.3144 118.818C42.2886 117.432 40.2075 116.129 38.0762 114.913C28.999 109.722 18.9755 107.221 10.753 100.583C4.47526 95.5152 0.66065 89.3591 -0.246421 81.2665C-0.922415 75.0926 0.674844 68.8829 4.2433 63.8141C5.65194 61.812 6.76183 60.7562 8.17352 58.9797Z" fill="#00AA5B"/>
<path d="M50.7861 52.5023C55.5534 52.2306 60.9139 54.141 61.8152 59.6694C62.1346 61.6359 61.9571 64.4022 61.9546 66.4391L61.9457 76.1749C61.9419 80.1855 61.9597 84.1935 61.9445 88.2079C61.9343 90.8774 59.9087 90.713 57.8629 90.8226C56.6777 90.8863 55.4811 90.9246 54.2934 90.9794C51.1448 91.0176 46.7989 91.1859 43.8335 90.2604C42.725 89.9149 43.0116 86.0522 43.0132 85.026L43.0112 77.734L43.0083 66.0732C43.0085 64.2943 43.0112 62.4992 43.0234 60.721C43.0575 55.7594 46.2517 53.3996 50.7861 52.5023Z" fill="#00AA5B"/>
<path d="M98.9702 61.3489C103.541 66.4863 105.913 73.2301 105.569 80.1154C104.705 96.2368 88.727 106.119 74.4555 109.174C73.8597 109.301 73.2462 109.378 72.6555 109.514C73.6151 108.688 74.5087 108.142 75.4822 107.393C77.9806 105.472 80.3598 103.283 82.1179 100.644C79.3331 98.8349 76.6433 96.8793 74.0612 94.7873L74.1943 94.721C75.2325 94.2098 76.5989 93.7165 77.7144 93.3213C90.3964 88.8314 105.601 77.2369 98.4239 61.8737L98.9702 61.3489Z" fill="#00AA5B"/>
<path d="M159.202 95.1833C153.532 95.1833 148.492 93.8883 144.082 91.2983C139.742 88.6383 136.347 85.0683 133.897 80.5883C131.447 76.0383 130.222 70.9633 130.222 65.3633C130.222 59.6233 131.447 54.5483 133.897 50.1383C136.417 45.7283 139.777 42.2633 143.977 39.7433C148.177 37.1533 152.937 35.8583 158.257 35.8583C162.527 35.8583 166.342 36.5933 169.702 38.0633C173.062 39.5333 175.897 41.5633 178.207 44.1533C180.517 46.6733 182.267 49.5783 183.457 52.8683C184.717 56.1583 185.347 59.6583 185.347 63.3683C185.347 64.2783 185.312 65.2233 185.242 66.2033C185.172 67.1833 185.032 68.0933 184.822 68.9333H139.567V59.4833H178.102L172.432 63.7883C173.132 60.3583 172.887 57.3133 171.697 54.6533C170.577 51.9233 168.827 49.7883 166.447 48.2483C164.137 46.6383 161.407 45.8333 158.257 45.8333C155.107 45.8333 152.307 46.6383 149.857 48.2483C147.407 49.7883 145.517 52.0283 144.187 54.9683C142.857 57.8383 142.332 61.3383 142.612 65.4683C142.262 69.3183 142.787 72.6783 144.187 75.5483C145.657 78.4183 147.687 80.6583 150.277 82.2683C152.937 83.8783 155.947 84.6833 159.307 84.6833C162.737 84.6833 165.642 83.9133 168.022 82.3733C170.472 80.8333 172.397 78.8383 173.797 76.3883L183.457 81.1133C182.337 83.7733 180.587 86.1883 178.207 88.3583C175.897 90.4583 173.097 92.1383 169.807 93.3983C166.587 94.5883 163.052 95.1833 159.202 95.1833ZM220.911 95.1833C215.241 95.1833 210.201 93.8883 205.791 91.2983C201.451 88.6383 197.986 85.0683 195.396 80.5883C192.876 76.1083 191.616 71.0333 191.616 65.3633C191.616 59.7633 192.876 54.7233 195.396 50.2433C197.916 45.7633 201.381 42.2633 205.791 39.7433C210.201 37.1533 215.241 35.8583 220.911 35.8583C224.761 35.8583 228.366 36.5583 231.726 37.9583C235.086 39.2883 237.991 41.1433 240.441 43.5233C242.961 45.9033 244.816 48.6683 246.006 51.8183L235.611 56.6483C234.421 53.7083 232.496 51.3633 229.836 49.6133C227.246 47.7933 224.271 46.8833 220.911 46.8833C217.691 46.8833 214.786 47.6883 212.196 49.2983C209.676 50.8383 207.681 53.0433 206.211 55.9133C204.741 58.7133 204.006 61.8983 204.006 65.4683C204.006 69.0383 204.741 72.2583 206.211 75.1283C207.681 77.9283 209.676 80.1333 212.196 81.7433C214.786 83.3533 217.691 84.1583 220.911 84.1583C224.341 84.1583 227.316 83.2833 229.836 81.5333C232.426 79.7133 234.351 77.2983 235.611 74.2883L246.006 79.2233C244.886 82.2333 243.066 84.9633 240.546 87.4133C238.096 89.7933 235.191 91.6833 231.831 93.0833C228.471 94.4833 224.831 95.1833 220.911 95.1833ZM282.008 95.1833C276.548 95.1833 271.543 93.8883 266.993 91.2983C262.513 88.7083 258.943 85.1733 256.283 80.6933C253.623 76.2133 252.293 71.1383 252.293 65.4683C252.293 59.7283 253.623 54.6533 256.283 50.2433C258.943 45.7633 262.513 42.2633 266.993 39.7433C271.473 37.1533 276.478 35.8583 282.008 35.8583C287.608 35.8583 292.613 37.1533 297.023 39.7433C301.503 42.2633 305.038 45.7633 307.628 50.2433C310.288 54.6533 311.618 59.7283 311.618 65.4683C311.618 71.2083 310.288 76.3183 307.628 80.7983C304.968 85.2783 301.398 88.8133 296.918 91.4033C292.438 93.9233 287.468 95.1833 282.008 95.1833ZM282.008 84.1583C285.368 84.1583 288.343 83.3533 290.933 81.7433C293.523 80.1333 295.553 77.9283 297.023 75.1283C298.563 72.2583 299.333 69.0383 299.333 65.4683C299.333 61.8983 298.563 58.7133 297.023 55.9133C295.553 53.1133 293.523 50.9083 290.933 49.2983C288.343 47.6883 285.368 46.8833 282.008 46.8833C278.718 46.8833 275.743 47.6883 273.083 49.2983C270.493 50.9083 268.428 53.1133 266.888 55.9133C265.418 58.7133 264.683 61.8983 264.683 65.4683C264.683 69.0383 265.418 72.2583 266.888 75.1283C268.428 77.9283 270.493 80.1333 273.083 81.7433C275.743 83.3533 278.718 84.1583 282.008 84.1583ZM346.452 95.1833C340.992 95.1833 336.092 93.8883 331.752 91.2983C327.482 88.6383 324.087 85.0683 321.567 80.5883C319.117 76.1083 317.892 71.0683 317.892 65.4683C317.892 59.8683 319.152 54.8283 321.672 50.3483C324.192 45.8683 327.587 42.3333 331.857 39.7433C336.127 37.1533 340.957 35.8583 346.347 35.8583C350.897 35.8583 354.922 36.7683 358.422 38.5883C361.922 40.4083 364.687 42.9283 366.717 46.1483L364.932 48.8783V14.4383H376.692V93.9233H365.457V82.3733L366.822 84.5783C364.862 88.0083 362.062 90.6333 358.422 92.4533C354.782 94.2733 350.792 95.1833 346.452 95.1833ZM347.607 84.1583C350.897 84.1583 353.837 83.3533 356.427 81.7433C359.087 80.1333 361.152 77.9283 362.622 75.1283C364.162 72.2583 364.932 69.0383 364.932 65.4683C364.932 61.8983 364.162 58.7133 362.622 55.9133C361.152 53.1133 359.087 50.9083 356.427 49.2983C353.837 47.6883 350.897 46.8833 347.607 46.8833C344.317 46.8833 341.342 47.6883 338.682 49.2983C336.022 50.9083 333.957 53.1133 332.487 55.9133C331.017 58.7133 330.282 61.8983 330.282 65.4683C330.282 69.0383 331.017 72.2583 332.487 75.1283C333.957 77.9283 335.987 80.1333 338.577 81.7433C341.237 83.3533 344.247 84.1583 347.607 84.1583ZM387.544 93.9233V37.1183H398.884V48.5633L397.834 46.8833C399.094 43.1733 401.124 40.5133 403.924 38.9033C406.724 37.2233 410.084 36.3833 414.004 36.3833H417.469V47.1983H412.534C408.614 47.1983 405.429 48.4233 402.979 50.8733C400.599 53.2533 399.409 56.6833 399.409 61.1633V93.9233H387.544ZM449.991 95.1833C444.531 95.1833 439.526 93.8883 434.976 91.2983C430.496 88.7083 426.926 85.1733 424.266 80.6933C421.606 76.2133 420.276 71.1383 420.276 65.4683C420.276 59.7283 421.606 54.6533 424.266 50.2433C426.926 45.7633 430.496 42.2633 434.976 39.7433C439.456 37.1533 444.461 35.8583 449.991 35.8583C455.591 35.8583 460.596 37.1533 465.006 39.7433C469.486 42.2633 473.021 45.7633 475.611 50.2433C478.271 54.6533 479.601 59.7283 479.601 65.4683C479.601 71.2083 478.271 76.3183 475.611 80.7983C472.951 85.2783 469.381 88.8133 464.901 91.4033C460.421 93.9233 455.451 95.1833 449.991 95.1833ZM449.991 84.1583C453.351 84.1583 456.326 83.3533 458.916 81.7433C461.506 80.1333 463.536 77.9283 465.006 75.1283C466.546 72.2583 467.316 69.0383 467.316 65.4683C467.316 61.8983 466.546 58.7133 465.006 55.9133C463.536 53.1133 461.506 50.9083 458.916 49.2983C456.326 47.6883 453.351 46.8833 449.991 46.8833C446.701 46.8833 443.726 47.6883 441.066 49.2983C438.476 50.9083 436.411 53.1133 434.871 55.9133C433.401 58.7133 432.666 61.8983 432.666 65.4683C432.666 69.0383 433.401 72.2583 434.871 75.1283C436.411 77.9283 438.476 80.1333 441.066 81.7433C443.726 83.3533 446.701 84.1583 449.991 84.1583ZM488.184 114.923V37.1183H499.524V48.8783L498.159 46.1483C500.259 42.9283 503.059 40.4083 506.559 38.5883C510.059 36.7683 514.049 35.8583 518.529 35.8583C523.919 35.8583 528.749 37.1533 533.019 39.7433C537.359 42.3333 540.754 45.8683 543.204 50.3483C545.724 54.8283 546.984 59.8683 546.984 65.4683C546.984 71.0683 545.724 76.1083 543.204 80.5883C540.754 85.0683 537.394 88.6383 533.124 91.2983C528.854 93.8883 523.989 95.1833 518.529 95.1833C514.119 95.1833 510.094 94.2733 506.454 92.4533C502.884 90.6333 500.119 88.0083 498.159 84.5783L500.049 82.3733V114.923H488.184ZM517.374 84.1583C520.734 84.1583 523.709 83.3533 526.299 81.7433C528.889 80.1333 530.919 77.9283 532.389 75.1283C533.929 72.2583 534.699 69.0383 534.699 65.4683C534.699 61.8983 533.929 58.7133 532.389 55.9133C530.919 53.1133 528.889 50.9083 526.299 49.2983C523.709 47.6883 520.734 46.8833 517.374 46.8833C514.084 46.8833 511.109 47.6883 508.449 49.2983C505.859 50.9083 503.794 53.1133 502.254 55.9133C500.784 58.7133 500.049 61.8983 500.049 65.4683C500.049 69.0383 500.784 72.2583 502.254 75.1283C503.794 77.9283 505.859 80.1333 508.449 81.7433C511.109 83.3533 514.084 84.1583 517.374 84.1583Z" fill="#363C47"/>
</g>
<defs>
<clipPath id="clip0_278_4441">
<rect width="552" height="124" fill="white"/>
</clipPath>
</defs>
</svg>
