<svg preserveAspectRatio="none" width="100%" height="100%" overflow="visible" style="display: block;" viewBox="0 0 196 190.883" fill="none" xmlns="http://www.w3.org/2000/svg">
<g id="Frame 14">
<g id="Frame 13">
<path id="Vector" d="M97.1755 0.00200623C97.5364 -0.00260383 98.0303 -0.020762 98.2919 0.2571C100.269 2.35831 101.704 5.5658 103.039 8.12285C111.89 25.0738 127.176 37.0216 137.692 52.7615C144.142 62.3567 147.139 75.6102 139.382 85.4254C134.306 91.8529 125.91 95.5718 117.98 96.973C115.656 97.3837 114.808 96.558 114.78 94.3466C114.731 90.5636 114.752 86.7595 114.757 82.9807V59.6655C111.111 53.9853 96.0156 39.0209 106.903 33.3347C103.767 32.1471 102.471 31.927 99.2139 31.5718C95.954 31.3909 91.5195 31.8788 88.5838 33.3828C98.9971 38.9297 84.5644 54.1103 80.7639 59.5974L80.6719 59.7321C80.3251 70.9636 80.8541 82.4009 80.6322 93.6523C80.6843 95.6179 80.3339 97.3711 77.8539 96.9283C53.7056 92.6102 45.1964 73.7019 58.504 52.9057C68.5692 37.1764 82.7836 25.8338 91.626 9.38364C92.9535 6.91404 95.2838 1.54484 97.1755 0.00200623Z" fill="var(--fill-0, #00AA5B)"/>
<path id="Vector_2" d="M48.9612 64.7162L49.0345 64.7628C48.9894 65.1511 47.9638 66.8182 47.7219 67.3306C43.4525 76.376 46.084 86.2961 53.5878 92.7403C65.9484 103.355 85.2478 107.977 101.212 107.34C104.406 107.216 107.592 106.924 110.756 106.47C115.039 105.845 117.282 104.127 119.353 108.705C121.117 112.606 118.787 115.298 116.454 118.099C113.681 121.43 110.562 124.29 107.428 127.194C105.981 128.621 98.5283 135.297 96.8745 135.883C95.884 135.54 90.2897 131.275 88.8526 130.289C86.6166 128.77 84.3195 127.342 81.967 126.01C71.9479 120.321 60.8842 117.581 51.8084 110.307C44.8792 104.753 40.6687 98.007 39.6675 89.1389C38.9214 82.3733 40.6844 75.5685 44.6232 70.0139C46.178 67.82 47.403 66.663 48.9612 64.7162Z" fill="var(--fill-0, #00AA5B)"/>
<path id="Vector_3" d="M95.996 57.6181C101.258 57.3203 107.175 59.4138 108.17 65.472C108.522 67.627 108.326 70.6584 108.324 72.8905L108.314 83.5593C108.31 87.9542 108.329 92.3464 108.312 96.7455C108.301 99.6708 106.065 99.4906 103.807 99.6107C102.499 99.6805 101.178 99.7225 99.8673 99.7826C96.392 99.8244 91.5951 100.009 88.3219 98.9947C87.0984 98.6161 87.4147 94.3832 87.4165 93.2586L87.4143 85.2678L87.4111 72.4895C87.4113 70.5401 87.4143 68.573 87.4278 66.6244C87.4654 61.1873 90.9911 58.6014 95.996 57.6181Z" fill="var(--fill-0, #00AA5B)"/>
<path id="Vector_4" d="M149.18 67.313C154.225 72.9427 156.843 80.3328 156.464 87.8779C155.51 105.544 137.874 116.374 122.122 119.721C121.464 119.86 120.787 119.945 120.135 120.094C121.194 119.189 122.18 118.59 123.255 117.77C126.012 115.665 128.639 113.266 130.579 110.374C127.505 108.391 124.536 106.248 121.686 103.956L121.833 103.883C122.979 103.323 124.487 102.782 125.719 102.349C139.717 97.4292 156.499 84.7236 148.577 67.888L149.18 67.313Z" fill="var(--fill-0, #00AA5B)"/>
</g>
<path id="Vector_5" d="M13.6291 181.65C10.9625 181.65 8.59224 181.045 6.51825 179.833C4.47718 178.589 2.88054 176.919 1.72833 174.824C0.57611 172.696 0 170.322 0 167.703C0 165.018 0.57611 162.644 1.72833 160.581C2.91346 158.519 4.49365 156.898 6.46887 155.719C8.4441 154.508 10.6827 153.902 13.1846 153.902C15.1928 153.902 16.987 154.246 18.5671 154.933C20.1473 155.621 21.4806 156.571 22.567 157.782C23.6534 158.961 24.4764 160.319 25.036 161.858C25.6286 163.397 25.9249 165.034 25.9249 166.769C25.9249 167.195 25.9084 167.637 25.8755 168.095C25.8426 168.554 25.7767 168.979 25.678 169.372H4.39488V164.952H22.5176L19.851 166.966C20.1802 165.362 20.065 163.937 19.5054 162.693C18.9787 161.416 18.1556 160.418 17.0363 159.697C15.95 158.944 14.6661 158.568 13.1846 158.568C11.7032 158.568 10.3864 158.944 9.23419 159.697C8.08197 160.418 7.19312 161.465 6.56763 162.84C5.94214 164.183 5.69524 165.82 5.82692 167.752C5.66232 169.552 5.90922 171.124 6.56763 172.466C7.25896 173.809 8.21365 174.857 9.43171 175.61C10.6827 176.363 12.0983 176.739 13.6785 176.739C15.2916 176.739 16.6578 176.379 17.7771 175.659C18.9293 174.938 19.8346 174.005 20.493 172.859L25.036 175.069C24.5093 176.314 23.6863 177.443 22.567 178.458C21.4806 179.44 20.1638 180.226 18.6165 180.815C17.1022 181.372 15.4397 181.65 13.6291 181.65ZM42.6503 181.65C39.9838 181.65 37.6135 181.045 35.5395 179.833C33.4985 178.589 31.8689 176.919 30.6508 174.824C29.4657 172.728 28.8731 170.355 28.8731 167.703C28.8731 165.083 29.4657 162.726 30.6508 160.63C31.836 158.535 33.4655 156.898 35.5395 155.719C37.6135 154.508 39.9838 153.902 42.6503 153.902C44.461 153.902 46.1564 154.23 47.7366 154.884C49.3167 155.506 50.6829 156.374 51.8352 157.487C53.0203 158.6 53.8927 159.894 54.4523 161.367L49.5636 163.626C49.004 162.251 48.0987 161.154 46.8477 160.336C45.6296 159.485 44.2305 159.059 42.6503 159.059C41.136 159.059 39.7698 159.435 38.5517 160.188C37.3666 160.909 36.4284 161.94 35.737 163.282C35.0457 164.592 34.7 166.082 34.7 167.752C34.7 169.421 35.0457 170.928 35.737 172.27C36.4284 173.58 37.3666 174.611 38.5517 175.364C39.7698 176.117 41.136 176.494 42.6503 176.494C44.2634 176.494 45.6626 176.084 46.8477 175.266C48.0658 174.415 48.9711 173.285 49.5636 171.877L54.4523 174.185C53.9256 175.593 53.0697 176.87 51.8845 178.016C50.7323 179.129 49.3661 180.013 47.7859 180.668C46.2058 181.323 44.4939 181.65 42.6503 181.65ZM71.3838 181.65C68.816 181.65 66.4622 181.045 64.3224 179.833C62.2155 178.622 60.5365 176.968 59.2855 174.873C58.0345 172.777 57.4091 170.404 57.4091 167.752C57.4091 165.067 58.0345 162.693 59.2855 160.63C60.5365 158.535 62.2155 156.898 64.3224 155.719C66.4293 154.508 68.7831 153.902 71.3838 153.902C74.0174 153.902 76.3713 154.508 78.4452 155.719C80.5522 156.898 82.2146 158.535 83.4327 160.63C84.6837 162.693 85.3092 165.067 85.3092 167.752C85.3092 170.436 84.6837 172.827 83.4327 174.922C82.1817 177.017 80.5028 178.671 78.3959 179.882C76.2889 181.061 73.9516 181.65 71.3838 181.65ZM71.3838 176.494C72.964 176.494 74.3631 176.117 75.5812 175.364C76.7992 174.611 77.7539 173.58 78.4452 172.27C79.1695 170.928 79.5316 169.421 79.5316 167.752C79.5316 166.082 79.1695 164.592 78.4452 163.282C77.7539 161.973 76.7992 160.941 75.5812 160.188C74.3631 159.435 72.964 159.059 71.3838 159.059C69.8365 159.059 68.4374 159.435 67.1864 160.188C65.9684 160.941 64.9972 161.973 64.273 163.282C63.5816 164.592 63.236 166.082 63.236 167.752C63.236 169.421 63.5816 170.928 64.273 172.27C64.9972 173.58 65.9684 174.611 67.1864 175.364C68.4374 176.117 69.8365 176.494 71.3838 176.494ZM101.691 181.65C99.1235 181.65 96.8191 181.045 94.778 179.833C92.7699 178.589 91.1732 176.919 89.9881 174.824C88.8359 172.728 88.2598 170.371 88.2598 167.752C88.2598 165.132 88.8523 162.775 90.0375 160.68C91.2226 158.584 92.8192 156.931 94.8274 155.719C96.8355 154.508 99.1071 153.902 101.642 153.902C103.782 153.902 105.675 154.328 107.321 155.179C108.967 156.03 110.267 157.209 111.222 158.715L110.382 159.992V143.883H115.913V181.061H110.629V175.659L111.271 176.69C110.349 178.294 109.033 179.522 107.321 180.373C105.609 181.225 103.732 181.65 101.691 181.65ZM102.235 176.494C103.782 176.494 105.164 176.117 106.382 175.364C107.633 174.611 108.605 173.58 109.296 172.27C110.02 170.928 110.382 169.421 110.382 167.752C110.382 166.082 110.02 164.592 109.296 163.282C108.605 161.973 107.633 160.941 106.382 160.188C105.164 159.435 103.782 159.059 102.235 159.059C100.687 159.059 99.2881 159.435 98.0371 160.188C96.7862 160.941 95.815 161.973 95.1237 163.282C94.4324 164.592 94.0867 166.082 94.0867 167.752C94.0867 169.421 94.4324 170.928 95.1237 172.27C95.815 173.58 96.7697 174.611 97.9878 175.364C99.2387 176.117 100.654 176.494 102.235 176.494ZM121.017 181.061V154.491H126.35V159.845L125.856 159.059C126.448 157.324 127.403 156.079 128.72 155.326C130.037 154.541 131.617 154.148 133.46 154.148H135.09V159.206H132.769C130.926 159.206 129.428 159.779 128.276 160.925C127.156 162.038 126.597 163.643 126.597 165.738V181.061H121.017ZM150.385 181.65C147.817 181.65 145.463 181.045 143.323 179.833C141.217 178.622 139.538 176.968 138.287 174.873C137.036 172.777 136.41 170.404 136.41 167.752C136.41 165.067 137.036 162.693 138.287 160.63C139.538 158.535 141.217 156.898 143.323 155.719C145.43 154.508 147.784 153.902 150.385 153.902C153.019 153.902 155.372 154.508 157.446 155.719C159.553 156.898 161.216 158.535 162.434 160.63C163.685 162.693 164.31 165.067 164.31 167.752C164.31 170.436 163.685 172.827 162.434 174.922C161.183 177.017 159.504 178.671 157.397 179.882C155.29 181.061 152.953 181.65 150.385 181.65ZM150.385 176.494C151.965 176.494 153.364 176.117 154.582 175.364C155.8 174.611 156.755 173.58 157.446 172.27C158.171 170.928 158.533 169.421 158.533 167.752C158.533 166.082 158.171 164.592 157.446 163.282C156.755 161.973 155.8 160.941 154.582 160.188C153.364 159.435 151.965 159.059 150.385 159.059C148.838 159.059 147.439 159.435 146.188 160.188C144.969 160.941 143.998 161.973 143.274 163.282C142.583 164.592 142.237 166.082 142.237 167.752C142.237 169.421 142.583 170.928 143.274 172.27C143.998 173.58 144.969 174.611 146.188 175.364C147.439 176.117 148.838 176.494 150.385 176.494ZM168.347 190.883V154.491H173.68V159.992L173.038 158.715C174.026 157.209 175.342 156.03 176.988 155.179C178.634 154.328 180.511 153.902 182.618 153.902C185.153 153.902 187.424 154.508 189.432 155.719C191.473 156.931 193.07 158.584 194.222 160.68C195.407 162.775 196 165.132 196 167.752C196 170.371 195.407 172.728 194.222 174.824C193.07 176.919 191.49 178.589 189.482 179.833C187.474 181.045 185.186 181.65 182.618 181.65C180.544 181.65 178.651 181.225 176.939 180.373C175.26 179.522 173.96 178.294 173.038 176.69L173.927 175.659V190.883H168.347ZM182.075 176.494C183.655 176.494 185.054 176.117 186.272 175.364C187.49 174.611 188.445 173.58 189.136 172.27C189.86 170.928 190.222 169.421 190.222 167.752C190.222 166.082 189.86 164.592 189.136 163.282C188.445 161.973 187.49 160.941 186.272 160.188C185.054 159.435 183.655 159.059 182.075 159.059C180.527 159.059 179.128 159.435 177.877 160.188C176.659 160.941 175.688 161.973 174.964 163.282C174.272 164.592 173.927 166.082 173.927 167.752C173.927 169.421 174.272 170.928 174.964 172.27C175.688 173.58 176.659 174.611 177.877 175.364C179.128 176.117 180.527 176.494 182.075 176.494Z" fill="var(--fill-0, #363C47)"/>
</g>
</svg>
